<svg width="200" height="41" viewBox="0 0 200 41" fill="none" xmlns="http://www.w3.org/2000/svg">
<path d="M64.0259 28.168C62.8579 28.168 61.8019 27.968 60.8579 27.568C59.9299 27.168 59.1939 26.592 58.6499 25.84C58.1059 25.088 57.8259 24.2 57.8099 23.176H61.4099C61.4579 23.864 61.6979 24.408 62.1299 24.808C62.5779 25.208 63.1859 25.408 63.9539 25.408C64.7379 25.408 65.3539 25.224 65.8019 24.856C66.2499 24.472 66.4739 23.976 66.4739 23.368C66.4739 22.872 66.3219 22.464 66.0179 22.144C65.7139 21.824 65.3299 21.576 64.8659 21.4C64.4179 21.208 63.7939 21 62.9939 20.776C61.9059 20.456 61.0179 20.144 60.3299 19.84C59.6579 19.52 59.0739 19.048 58.5779 18.424C58.0979 17.784 57.8579 16.936 57.8579 15.88C57.8579 14.888 58.1059 14.024 58.6019 13.288C59.0979 12.552 59.7939 11.992 60.6899 11.608C61.5859 11.208 62.6099 11.008 63.7619 11.008C65.4899 11.008 66.8899 11.432 67.9619 12.28C69.0499 13.112 69.6499 14.28 69.7619 15.784H66.0659C66.0339 15.208 65.7859 14.736 65.3219 14.368C64.8739 13.984 64.2739 13.792 63.5219 13.792C62.8659 13.792 62.3379 13.96 61.9379 14.296C61.5539 14.632 61.3619 15.12 61.3619 15.76C61.3619 16.208 61.5059 16.584 61.7939 16.888C62.0979 17.176 62.4659 17.416 62.8979 17.608C63.3459 17.784 63.9699 17.992 64.7699 18.232C65.8579 18.552 66.7459 18.872 67.4339 19.192C68.1219 19.512 68.7139 19.992 69.2099 20.632C69.7059 21.272 69.9539 22.112 69.9539 23.152C69.9539 24.048 69.7219 24.88 69.2579 25.648C68.7939 26.416 68.1139 27.032 67.2179 27.496C66.3219 27.944 65.2579 28.168 64.0259 28.168ZM85.2269 21.064C85.2269 21.544 85.1949 21.976 85.1309 22.36H75.4109C75.4909 23.32 75.8269 24.072 76.4189 24.616C77.0109 25.16 77.7389 25.432 78.6029 25.432C79.8509 25.432 80.7389 24.896 81.2669 23.824H84.8909C84.5069 25.104 83.7709 26.16 82.6829 26.992C81.5949 27.808 80.2589 28.216 78.6749 28.216C77.3949 28.216 76.2429 27.936 75.2189 27.376C74.2109 26.8 73.4189 25.992 72.8429 24.952C72.2829 23.912 72.0029 22.712 72.0029 21.352C72.0029 19.976 72.2829 18.768 72.8429 17.728C73.4029 16.688 74.1869 15.888 75.1949 15.328C76.2029 14.768 77.3629 14.488 78.6749 14.488C79.9389 14.488 81.0669 14.76 82.0589 15.304C83.0669 15.848 83.8429 16.624 84.3869 17.632C84.9469 18.624 85.2269 19.768 85.2269 21.064ZM81.7469 20.104C81.7309 19.24 81.4189 18.552 80.8109 18.04C80.2029 17.512 79.4589 17.248 78.5789 17.248C77.7469 17.248 77.0429 17.504 76.4669 18.016C75.9069 18.512 75.5629 19.208 75.4349 20.104H81.7469ZM95.0474 14.512C96.6314 14.512 97.9114 15.016 98.8874 16.024C99.8634 17.016 100.351 18.408 100.351 20.2V28H96.9914V20.656C96.9914 19.6 96.7274 18.792 96.1994 18.232C95.6714 17.656 94.9514 17.368 94.0394 17.368C93.1114 17.368 92.3754 17.656 91.8314 18.232C91.3034 18.792 91.0394 19.6 91.0394 20.656V28H87.6794V14.704H91.0394V16.36C91.4874 15.784 92.0554 15.336 92.7434 15.016C93.4474 14.68 94.2154 14.512 95.0474 14.512ZM113.891 11.248V13.96H106.907V18.256H112.259V20.92H106.907V28H103.547V11.248H113.891ZM117.977 13.12C117.385 13.12 116.889 12.936 116.489 12.568C116.105 12.184 115.913 11.712 115.913 11.152C115.913 10.592 116.105 10.128 116.489 9.76C116.889 9.376 117.385 9.184 117.977 9.184C118.569 9.184 119.057 9.376 119.441 9.76C119.841 10.128 120.041 10.592 120.041 11.152C120.041 11.712 119.841 12.184 119.441 12.568C119.057 12.936 118.569 13.12 117.977 13.12ZM119.633 14.704V28H116.273V14.704H119.633ZM130.321 14.512C131.905 14.512 133.185 15.016 134.161 16.024C135.137 17.016 135.625 18.408 135.625 20.2V28H132.265V20.656C132.265 19.6 132.001 18.792 131.473 18.232C130.945 17.656 130.225 17.368 129.313 17.368C128.385 17.368 127.649 17.656 127.105 18.232C126.577 18.792 126.313 19.6 126.313 20.656V28H122.953V14.704H126.313V16.36C126.761 15.784 127.329 15.336 128.017 15.016C128.721 14.68 129.489 14.512 130.321 14.512ZM137.956 21.304C137.956 19.96 138.22 18.768 138.748 17.728C139.292 16.688 140.02 15.888 140.932 15.328C141.86 14.768 142.892 14.488 144.028 14.488C145.02 14.488 145.884 14.688 146.62 15.088C147.372 15.488 147.972 15.992 148.42 16.6V14.704H151.804V28H148.42V26.056C147.988 26.68 147.388 27.2 146.62 27.616C145.868 28.016 144.996 28.216 144.004 28.216C142.884 28.216 141.86 27.928 140.932 27.352C140.02 26.776 139.292 25.968 138.748 24.928C138.22 23.872 137.956 22.664 137.956 21.304ZM148.42 21.352C148.42 20.536 148.26 19.84 147.94 19.264C147.62 18.672 147.188 18.224 146.644 17.92C146.1 17.6 145.516 17.44 144.892 17.44C144.268 17.44 143.692 17.592 143.164 17.896C142.636 18.2 142.204 18.648 141.868 19.24C141.548 19.816 141.388 20.504 141.388 21.304C141.388 22.104 141.548 22.808 141.868 23.416C142.204 24.008 142.636 24.464 143.164 24.784C143.708 25.104 144.284 25.264 144.892 25.264C145.516 25.264 146.1 25.112 146.644 24.808C147.188 24.488 147.62 24.04 147.94 23.464C148.26 22.872 148.42 22.168 148.42 21.352ZM162.454 14.512C164.038 14.512 165.318 15.016 166.294 16.024C167.27 17.016 167.758 18.408 167.758 20.2V28H164.398V20.656C164.398 19.6 164.134 18.792 163.606 18.232C163.078 17.656 162.358 17.368 161.446 17.368C160.518 17.368 159.782 17.656 159.238 18.232C158.71 18.792 158.446 19.6 158.446 20.656V28H155.086V14.704H158.446V16.36C158.894 15.784 159.462 15.336 160.15 15.016C160.854 14.68 161.622 14.512 162.454 14.512ZM176.641 25.336C178.001 25.336 178.889 24.728 179.305 23.512H182.929C182.593 24.808 181.969 25.864 181.057 26.68C180.161 27.496 179.033 27.984 177.673 28.144V29.08C178.553 29.08 179.289 29.304 179.881 29.752C180.489 30.2 180.793 30.848 180.793 31.696C180.793 32.56 180.481 33.224 179.857 33.688C179.249 34.152 178.497 34.384 177.601 34.384H174.193V32.416H177.049C177.433 32.416 177.721 32.36 177.913 32.248C178.121 32.136 178.225 31.936 178.225 31.648C178.225 31.36 178.121 31.16 177.913 31.048C177.721 30.952 177.433 30.904 177.049 30.904H175.561V28.144C174.473 27.984 173.513 27.608 172.681 27.016C171.865 26.408 171.225 25.624 170.761 24.664C170.313 23.688 170.089 22.584 170.089 21.352C170.089 19.976 170.369 18.776 170.929 17.752C171.489 16.712 172.265 15.912 173.257 15.352C174.249 14.776 175.385 14.488 176.665 14.488C178.313 14.488 179.673 14.904 180.745 15.736C181.833 16.552 182.561 17.704 182.929 19.192H179.305C179.113 18.616 178.785 18.168 178.321 17.848C177.873 17.512 177.313 17.344 176.641 17.344C175.681 17.344 174.921 17.696 174.361 18.4C173.801 19.088 173.521 20.072 173.521 21.352C173.521 22.616 173.801 23.6 174.361 24.304C174.921 24.992 175.681 25.336 176.641 25.336ZM184.526 21.304C184.526 19.96 184.79 18.768 185.318 17.728C185.862 16.688 186.59 15.888 187.502 15.328C188.43 14.768 189.462 14.488 190.598 14.488C191.59 14.488 192.454 14.688 193.19 15.088C193.942 15.488 194.542 15.992 194.99 16.6V14.704H198.374V28H194.99V26.056C194.558 26.68 193.958 27.2 193.19 27.616C192.438 28.016 191.566 28.216 190.574 28.216C189.454 28.216 188.43 27.928 187.502 27.352C186.59 26.776 185.862 25.968 185.318 24.928C184.79 23.872 184.526 22.664 184.526 21.304ZM194.99 21.352C194.99 20.536 194.83 19.84 194.51 19.264C194.19 18.672 193.758 18.224 193.214 17.92C192.67 17.6 192.086 17.44 191.462 17.44C190.838 17.44 190.262 17.592 189.734 17.896C189.206 18.2 188.774 18.648 188.438 19.24C188.118 19.816 187.958 20.504 187.958 21.304C187.958 22.104 188.118 22.808 188.438 23.416C188.774 24.008 189.206 24.464 189.734 24.784C190.278 25.104 190.854 25.264 191.462 25.264C192.086 25.264 192.67 25.112 193.214 24.808C193.758 24.488 194.19 24.04 194.51 23.464C194.83 22.872 194.99 22.168 194.99 21.352Z" fill="white"/>
<path d="M34.1422 5.85781C30.3647 2.08031 25.3422 0 20 0C14.6578 0 9.63531 2.08031 5.85781 5.85781C2.08031 9.63531 0 14.6578 0 20C0 25.3422 2.08039 30.3646 5.85781 34.1422C9.63523 37.9198 14.6578 40 20 40C25.3422 40 30.3647 37.9197 34.1422 34.1422C37.9197 30.3647 40 25.3422 40 20C40 14.6578 37.9196 9.63539 34.1422 5.85781Z" fill="#33CC95"/>
<g clip-path="url(#clip0)">
<path d="M20.5714 8V33.1429" stroke="white" stroke-width="2" stroke-linecap="round" stroke-linejoin="round"/>
<path d="M26.2857 12.5714H17.7143C16.6534 12.5714 15.636 12.9929 14.8859 13.743C14.1357 14.4931 13.7143 15.5106 13.7143 16.5714C13.7143 17.6323 14.1357 18.6497 14.8859 19.3999C15.636 20.15 16.6534 20.5714 17.7143 20.5714H23.4286C24.4894 20.5714 25.5069 20.9929 26.257 21.743C27.0072 22.4932 27.4286 23.5106 27.4286 24.5714C27.4286 25.6323 27.0072 26.6497 26.257 27.3999C25.5069 28.15 24.4894 28.5714 23.4286 28.5714H13.7143" stroke="white" stroke-width="2" stroke-linecap="round" stroke-linejoin="round"/>
</g>
<defs>
<clipPath id="clip0">
<rect width="27.4286" height="27.4286" fill="white" transform="translate(6.85715 6.85714)"/>
</clipPath>
</defs>
</svg>
